<?xml version="1.0" standalone="no"?> <!DOCTYPE svg PUBLIC "-//W3C//DTD SVG 1.0//EN" "http://www.w3.org/TR/2001/REC-SVG-20010904/DTD/svg10.dtd" > <svg xmlns="http://www.w3.org/2000/svg" width="100%" height="100%">
<defs >
<font id="gothamrnd-light" horiz-adv-x="496" ><font-face
    font-family="Gotham Rounded Light"
    units-per-em="1000"
    panose-1="0 0 0 0 0 0 0 0 0 0"
    ascent="800"
    descent="-200"
    alphabetic="0" />
<missing-glyph horiz-adv-x="500" d="M0 -200V800H500V-200H0ZM71 750L250 360L429 750H71ZM50 -76L222 300L50 676V-76ZM450 676L278 300L450 -76V676ZM250 240L71 -150H429L250 240Z" />
<glyph unicode=" " glyph-name="space" horiz-adv-x="300" />
<glyph unicode="!" glyph-name="exclam" horiz-adv-x="252" d="M111 195L95 678Q95 688 102 695T120 703H132Q142 703 149 696T157 678L141 195Q141 189 137 185T126 180T116 184T111 195ZM93 56Q93 70 102 79T126 89T149 80T159 56V29Q159 15 150 6T126 -4T103
5T93 29V56Z" />
<glyph unicode="&quot;" glyph-name="quotedbl" horiz-adv-x="410" d="M250 461L280 676Q284 702 308 702H327Q343 702 343 685Q343 684 338 661L281 460Q275 442 264 442Q247 442 250 461ZM70 461L100 676Q104 702 128 702H147Q163 702 163 685Q163 684 158 661L101
460Q95 442 84 442Q67 442 70 461Z" />
<glyph unicode="#" glyph-name="numbersign" horiz-adv-x="700" d="M142 25L170 187H69Q59 187 52 193T45 210T52 227T69 234H178L219 470H109Q99 470 92 476T85 493T92 510T109 517H227L255 682Q258 704 280 704Q292 704 298 695T302 675L275 517H482L510 682Q513
704 535 704Q547 704 553 695T557 675L530 517H630Q640 517 647 511T654 494T647 477T630 470H522L481 234H590Q600 234 607 228T614 211T607 194T590 187H473L444 18Q441 -4 419 -4Q407 -4 401 5T397 25L425 187H218L189 18Q186 -4 164 -4Q152 -4 146 5T142 25ZM226
234H433L474 470H267L226 234Z" />
<glyph unicode="$" glyph-name="dollar" horiz-adv-x="632" d="M297 738Q297 748 304 755T321 762T338 755T345 738V698Q439 690 523 628Q537 617 537 605Q537 595 530 588T511 580Q501 580 493 587Q423 643 343 652V372Q457 348 508 304T559 185Q559 106 499
55T345 0V-78Q345 -88 338 -95T321 -102T304 -95T297 -78V1Q172 11 72 98Q61 107 61 119Q61 129 68 136T86 144Q97 144 104 137Q190 57 299 46V331Q187 356 137 400T87 519Q87 595 146 646T297 700V738ZM508 181Q508 235 473 267T343 321V45Q417 46 462 84T508
181ZM138 523Q138 469 172 437T299 382V655Q227 654 183 616T138 523Z" />
<glyph unicode="%" glyph-name="percent" horiz-adv-x="824" d="M208 350Q141 350 98 402T55 527V529Q55 602 98 655T210 708Q277 708 320 656T363 531V529Q363 456 320 403T208 350ZM146 17Q146 25 150 30L637 693Q645 704 656 704Q665 704 671 698T678 683Q678
675 674 670L187 7Q179 -4 168 -4Q159 -4 153 2T146 17ZM614 -8Q547 -8 504 44T461 169V171Q461 244 504 297T616 350Q683 350 726 298T769 173V171Q769 98 726 45T614 -8ZM210 393Q254 393 282 431T311 527V529Q311 587 281 626T208 665Q164 665 136 626T107 531V529Q107
471 137 432T210 393ZM616 35Q660 35 688 73T717 169V171Q717 229 687 268T614 307Q570 307 542 268T513 173V171Q513 113 543 74T616 35Z" />
<glyph unicode="&amp;" glyph-name="ampersand" horiz-adv-x="696" d="M629 -9Q617 -9 605 3L501 111Q397 -10 264 -10Q171 -10 110 44T49 184V186Q49 324 230 391Q188 437 170 473T152 551V553Q152 621 201 666T327 712Q395 712 441 668T488 560V558Q488 436
316 377L500 188Q545 252 584 342Q590 357 607 357Q618 357 625 350T632 332Q632 325 629 319Q583 218 534 153L643 41Q655 29 655 17Q655 6 648 -1T629 -9ZM285 409Q436 457 436 556V558Q436 605 404 636T325 668Q272 668 238 636T204 555V553Q204 520 221 489T285
409ZM265 35Q374 35 468 145L261 359Q181 332 141 287T101 188V186Q101 122 147 79T265 35Z" />
<glyph unicode="&apos;" glyph-name="quotesingle" horiz-adv-x="230" d="M70 461L100 676Q104 702 128 702H147Q163 702 163 685Q163 684 158 661L101 460Q95 442 84 442Q67 442 70 461Z" />
<glyph unicode="(" glyph-name="parenleft" horiz-adv-x="430" d="M351 -139Q345 -139 339 -136Q210 -60 141 47T71 287T140 526T339 710Q345 713 351 713Q370 713 370 694Q370 682 359 676Q123 526 123 287T359 -102Q370 -108 370 -120Q370 -139 351 -139Z" />
<glyph unicode=")" glyph-name="parenright" horiz-adv-x="430" d="M79 -139Q60 -139 60 -120Q60 -108 71 -102Q307 48 307 287T71 676Q60 682 60 694Q60 713 79 713Q85 713 91 710Q220 634 289 527T359 287T290 48T91 -136Q85 -139 79 -139Z" />
<glyph unicode="*" glyph-name="asterisk" horiz-adv-x="430" d="M195 424L203 533L112 471Q103 465 96 465Q88 465 82 471T76 486Q76 499 90 505L193 554L90 603Q76 610 76 622Q76 641 96 643Q103 643 112 637L203 575L195 684Q194 693 200 699T215 706T230 700T235
684L227 575L318 637Q327 643 334 643Q342 643 348 637T354 622Q354 609 340 603L237 554L340 505Q354 499 354 486Q354 478 348 472T334 465Q327 465 318 471L227 533L235 424Q236 415 230 409T215 402T200 408T195 424Z" />
<glyph unicode="+" glyph-name="plus" horiz-adv-x="620" d="M285 134V328H88Q78 328 71 335T64 352T71 369T88 376H285V570Q285 580 292 587T310 595T327 588T335 570V376H532Q542 376 549 369T556 352T549 335T532 328H335V134Q335 124 328 117T310 109T293
116T285 134Z" />
<glyph unicode="," glyph-name="comma" horiz-adv-x="230" d="M54 -90Q54 -82 62 -77Q113 -49 109 0Q82 7 82 35V56Q82 70 91 79T115 89T138 80T148 56V31Q148 -46 121 -73Q89 -105 69 -105Q54 -105 54 -90Z" />
<glyph unicode="-" glyph-name="hyphen" horiz-adv-x="408" d="M94 269Q83 269 75 277T66 297T74 316T94 325H314Q325 325 333 317T342 297T334 278T314 269H94Z" />
<glyph unicode="." glyph-name="period" horiz-adv-x="230" d="M82 56Q82 70 91 79T115 89T138 80T148 56V29Q148 15 139 6T115 -4T92 5T82 29V56Z" />
<glyph unicode="/" glyph-name="slash" horiz-adv-x="500" d="M-6 -111Q-6 -104 -3 -98L449 788Q456 802 470 802Q479 802 485 796T491 781Q491 774 488 768L36 -118Q29 -132 15 -132Q6 -132 0 -126T-6 -111Z" />
<glyph unicode="0" glyph-name="zero" horiz-adv-x="710" d="M354 -12Q224 -12 145 93T65 348V350Q65 447 100 529T202 661T356 712Q486 712 565 607T645 352V350Q645 253 610 171T508 39T354 -12ZM251 35T356 35T526 128T591 348V350Q591 478 525 571T354 665T184
573T119 352V350Q119 223 185 129Z" />
<glyph unicode="1" glyph-name="one" horiz-adv-x="335" d="M179 22V653L65 614Q58 611 52 611Q43 611 37 617T30 633Q30 648 49 655L171 700Q190 707 203 707H205Q216 707 223 700T230 682V22Q230 11 223 4T205 -4Q194 -4 187 4T179 22Z" />
<glyph unicode="2" glyph-name="two" horiz-adv-x="590" d="M44 24Q44 36 56 46L309 275Q396 354 430 406T464 514Q464 580 418 622T306 664Q245 664 199 635T110 547Q102 536 90 536Q80 536 73 542T66 559Q66 567 70 572Q118 642 172 676T311 710Q400 710 459
655T519 518V516Q519 447 481 390T344 244L130 50H505Q516 50 523 43T530 25T523 7T505 0H69Q58 0 51 7T44 24Z" />
<glyph unicode="3" glyph-name="three" horiz-adv-x="610" d="M311 -12Q158 -12 62 104Q55 113 55 122Q55 132 62 140T81 148Q94 148 102 138Q188 35 312 35Q384 35 434 78T485 190V192Q485 264 425 304T267 344H242Q232 344 225 350T218 367Q218 376 227 386L457
651H111Q100 651 93 658T86 675Q86 686 93 693T111 700H509Q519 700 525 694T532 678T523 657L291 392Q399 386 469 336T539 194V192Q539 103 472 46T311 -12Z" />
<glyph unicode="4" glyph-name="four" horiz-adv-x="664" d="M445 21V171H74Q62 171 55 178T47 198Q47 208 55 219L441 696Q451 709 466 709Q479 709 487 701T495 680V216H590Q599 216 606 209T613 193T606 178T590 171H495V21Q495 10 488 3T470 -4T453 3T445
21ZM111 216H445V630L111 216Z" />
<glyph unicode="5" glyph-name="five" horiz-adv-x="605" d="M302 -12Q239 -12 178 16T71 88Q60 99 60 111Q60 120 67 127T85 135Q98 135 107 126Q203 35 304 35Q387 35 439 85T492 211V213Q492 287 439 333T300 379Q260 379 226 370T171 350T145 340Q130 340
116 349Q101 359 103 384L120 672Q121 700 147 700H494Q504 700 511 693T519 675T512 657T494 650H168L151 388Q229 426 306 426Q409 426 477 367T546 215V213Q546 116 477 52T302 -12Z" />
<glyph unicode="6" glyph-name="six" horiz-adv-x="642" d="M331 -12Q223 -12 153 58Q107 104 86 165T64 331V333Q64 495 142 603T349 712Q448 712 536 643Q547 634 547 622Q547 612 540 604T521 596Q512 596 505 602Q428 665 345 665Q239 665 176 564T116 302Q192
432 335 432Q433 432 504 372T576 220V218Q576 119 506 54T331 -12ZM335 35Q418 35 470 87T522 216V218Q522 290 469 338T332 386T193 333T137 213V211Q137 136 193 86T335 35Z" />
<glyph unicode="7" glyph-name="seven" horiz-adv-x="587" d="M169 20Q169 27 173 35L474 650H89Q78 650 71 657T64 675T71 693T89 700H511Q522 700 529 694T536 677Q536 669 530 657L220 14Q212 -4 195 -4Q184 -4 177 3T169 20Z" />
<glyph unicode="8" glyph-name="eight" horiz-adv-x="630" d="M426 -10T315 -10T130 45T55 187V189Q55 248 98 293T210 362Q79 415 79 525V527Q79 606 150 658T315 710T480 658T551 527V525Q551 415 420 362Q489 339 532 294T575 189V187Q575 101 501 46ZM239
381T315 381T444 421T497 525V527Q497 586 445 624T315 663T186 625T133 527V525Q133 462 186 422ZM221 37T315 37T465 80T521 185V187Q521 252 461 294T315 337T169 295T109 187V185Q109 123 165 80Z" />
<glyph unicode="9" glyph-name="nine" horiz-adv-x="642" d="M293 -12Q189 -12 94 65Q83 74 83 86Q83 97 90 104T108 112Q119 112 127 105Q209 35 294 35Q400 35 466 137T526 396Q451 261 308 261Q203 261 135 322T66 475V477Q66 576 135 644T312 712Q419 712
490 641Q578 553 578 368V366Q578 202 497 95T293 -12ZM310 307Q395 307 450 361T505 485V487Q505 562 449 613T306 665Q223 665 172 610T120 479V477Q120 403 173 355T310 307Z" />
<glyph unicode=":" glyph-name="colon" horiz-adv-x="240" d="M87 481Q87 495 96 504T120 514T143 505T153 481V454Q153 440 144 431T120 421T97 430T87 454V481ZM87 56Q87 70 96 79T120 89T143 80T153 56V29Q153 15 144 6T120 -4T97 5T87 29V56Z" />
<glyph unicode=";" glyph-name="semicolon" horiz-adv-x="240" d="M87 481Q87 495 96 504T120 514T143 505T153 481V454Q153 440 144 431T120 421T97 430T87 454V481ZM59 -90Q59 -82 67 -77Q118 -49 114 0Q87 7 87 35V56Q87 70 96 79T120 89T143 80T153 56V31Q153
-46 126 -73Q94 -105 74 -105Q59 -105 59 -90Z" />
<glyph unicode="&lt;" glyph-name="less" horiz-adv-x="620" d="M509 104Q502 104 494 108L78 324Q60 334 60 351V353Q60 370 78 380L494 596Q502 600 509 600Q519 600 525 593T531 576Q531 562 515 553L124 353L515 151Q531 142 531 128Q531 118 525 111T509 104Z" />
<glyph unicode="=" glyph-name="equal" horiz-adv-x="620" d="M105 439Q94 439 87 446T79 464T86 482T105 490H515Q526 490 533 482T541 464T534 447T515 439H105ZM105 214Q94 214 87 221T79 239Q79 250 86 257T105 265H515Q526 265 533 258T541 239Q541 229 534
222T515 214H105Z" />
<glyph unicode="&gt;" glyph-name="greater" horiz-adv-x="620" d="M111 600Q118 600 126 596L542 380Q560 370 560 353V351Q560 334 542 324L126 108Q118 104 111 104Q101 104 95 111T89 128Q89 142 105 151L496 351L105 553Q89 562 89 576Q89 586 95 593T111 600Z" />
<glyph unicode="?" glyph-name="question" horiz-adv-x="534" d="M246 179H244Q230 179 228 197L217 326Q216 336 222 343T240 351Q326 356 377 397T429 510V512Q429 575 383 619T263 663Q160 663 80 572Q72 562 60 562Q50 562 44 568T37 584T43 601Q134 709 265
709Q362 709 422 653T482 514V512Q482 424 423 372T270 308L262 197Q260 179 246 179ZM212 56Q212 70 221 79T245 89T268 80T278 56V29Q278 15 269 6T245 -4T222 5T212 29V56Z" />
<glyph unicode="@" glyph-name="at" horiz-adv-x="980" d="M499 -162Q309 -162 181 -35T53 274Q53 454 180 583T491 712Q673 712 800 594T927 316Q927 197 872 135T745 73Q693 73 658 98T609 166Q534 73 438 73Q364 73 313 123T261 251Q261 354 333 427T494 500Q596
500 643 411L654 470Q659 494 679 494Q691 494 697 485T702 463L668 269Q659 216 659 197Q659 154 682 132T749 109Q807 109 850 162T893 316Q893 407 842 490T696 627T491 680Q319 680 203 562T87 274Q87 104 203 -13T499 -130Q629 -130 742 -66Q746 -64 752 -64Q757
-64 761 -68T765 -78Q765 -86 758 -91Q639 -162 499 -162ZM446 120Q516 120 571 179T626 313Q626 372 589 412T494 452Q424 452 369 395T313 255Q313 192 349 156T446 120Z" />
<glyph unicode="A" glyph-name="A" horiz-adv-x="790" d="M56 18Q56 26 60 34L359 682Q371 707 394 707H396Q419 707 431 682L729 36Q733 28 733 20Q733 10 726 3T708 -4Q691 -4 682 16L600 196H187L105 15Q97 -4 80 -4Q70 -4 63 2T56 18ZM209 243H578L394 648L209 243Z" />
<glyph unicode="B" glyph-name="B" horiz-adv-x="722" d="M104 26V674Q104 684 112 692T130 700H393Q513 700 575 638Q620 593 620 528V526Q620 408 501 360Q659 319 659 193V191Q659 104 591 52T408 0H130Q120 0 112 8T104 26ZM156 377H387Q468 377 517 415T567
521V523Q567 582 521 617T392 652H156V377ZM156 48H410Q500 48 553 86T606 191V193Q606 258 551 293T393 329H156V48Z" />
<glyph unicode="C" glyph-name="C" horiz-adv-x="738" d="M421 -12Q272 -12 173 92T73 348V350Q73 500 173 606T423 712Q504 712 564 687T680 614Q690 604 690 593Q690 583 682 575T663 567T645 574Q545 665 422 665Q296 665 212 575T127 352V350Q127 217 212
126T423 35Q492 35 545 59T651 132Q659 140 669 140T686 133T694 115T686 97Q628 43 566 16T421 -12Z" />
<glyph unicode="D" glyph-name="D" horiz-adv-x="782" d="M104 26V674Q104 684 112 692T130 700H337Q500 700 604 601T709 352V350Q709 200 605 100T337 0H130Q120 0 112 8T104 26ZM156 48H337Q480 48 567 134T655 348V350Q655 478 568 565T337 652H156V48Z" />
<glyph unicode="E" glyph-name="E" horiz-adv-x="670" d="M130 0Q120 0 112 8T104 26V674Q104 684 112 692T130 700H582Q592 700 599 693T606 676T599 659T582 652H156V377H537Q547 377 554 370T561 353T554 336T537 329H156V48H587Q597 48 604 41T611 24T604
7T587 0H130Z" />
<glyph unicode="F" glyph-name="F" horiz-adv-x="656" d="M104 22V674Q104 684 112 692T130 700H577Q587 700 594 693T601 676T594 659T577 652H156V365H532Q542 365 549 358T556 341T549 324T532 317H156V22Q156 12 148 4T130 -4T112 4T104 22Z" />
<glyph unicode="G" glyph-name="G" horiz-adv-x="784" d="M425 -12Q264 -12 169 91T73 348V350Q73 497 170 604T419 712Q555 712 658 634Q668 626 668 613Q668 602 660 595T642 587Q634 587 626 594Q535 665 416 665Q291 665 209 573T127 352V350Q127 211 208
123T427 34Q490 34 549 56T650 114V315H432Q422 315 415 322T408 339T415 356T432 363H674Q684 363 692 356T700 337V108Q700 93 682 78Q566 -12 425 -12Z" />
<glyph unicode="H" glyph-name="H" horiz-adv-x="760" d="M104 22V678Q104 688 112 696T130 704T148 696T156 678V376H604V678Q604 688 612 696T630 704T648 696T656 678V22Q656 12 648 4T630 -4T612 4T604 22V328H156V22Q156 12 148 4T130 -4T112 4T104 22Z" />
<glyph unicode="I" glyph-name="I" horiz-adv-x="274" d="M111 22V678Q111 688 118 696T137 704T155 696T163 678V22Q163 12 156 4T137 -4T119 4T111 22Z" />
<glyph unicode="J" glyph-name="J" horiz-adv-x="549" d="M249 -10Q118 -10 46 105Q42 111 42 119Q42 130 50 137T68 145Q82 145 89 133Q121 84 159 61T252 37Q319 37 361 86T404 224V678Q404 688 412 696T430 704T448 696T456 678V228Q456 110 392 46Q336 -10 249 -10Z" />
<glyph unicode="K" glyph-name="K" horiz-adv-x="715" d="M104 22V678Q104 688 112 696T130 704T148 696T156 678V240L598 696Q606 704 616 704T634 696T642 678T634 660L367 391L652 42Q660 32 660 23Q660 12 652 4T633 -4Q621 -4 613 6L330 354L156 178V22Q156
12 148 4T130 -4T112 4T104 22Z" />
<glyph unicode="L" glyph-name="L" horiz-adv-x="619" d="M104 26V678Q104 688 112 696T130 704T148 696T156 678V48H547Q557 48 564 41T571 24T564 7T547 0H130Q120 0 112 8T104 26Z" />
<glyph unicode="M" glyph-name="M" horiz-adv-x="868" d="M104 21V677Q104 688 112 695T130 703H135Q149 703 161 688L434 286L707 688Q717 703 733 703H738Q748 703 756 696T764 677V22Q764 12 756 4T738 -4T720 4T712 22V608L455 234Q446 221 433 221T411 234L154
608V21Q154 10 147 3T129 -4T111 3T104 21Z" />
<glyph unicode="N" glyph-name="N" horiz-adv-x="790" d="M104 21V677Q104 688 112 695T130 703H138Q152 703 164 688L636 89V679Q636 690 643 697T661 704T679 697T686 679V19Q686 10 680 4T665 -3H661Q649 -3 635 14L154 624V21Q154 10 147 3T129 -4T111 3T104 21Z" />
<glyph unicode="O" glyph-name="O" horiz-adv-x="850" d="M579 -12T424 -12T171 94T73 348V350Q73 498 172 605T426 712T679 606T777 352V350Q777 202 678 95ZM298 35T426 35T638 126T723 348V350Q723 481 638 573T424 665T212 574T127 352V350Q127 219 212 127Z" />
<glyph unicode="P" glyph-name="P" horiz-adv-x="668" d="M104 22V674Q104 684 112 692T130 700H358Q475 700 546 643T618 486V484Q618 378 540 320T345 261H156V22Q156 12 148 4T130 -4T112 4T104 22ZM156 309H348Q446 309 506 356T566 481V483Q566 564 509 608T354
652H156V309Z" />
<glyph unicode="Q" glyph-name="Q" horiz-adv-x="850" d="M424 -12Q269 -12 171 94T73 348V350Q73 498 172 605T426 712T679 606T777 352V350Q777 208 685 103L765 36Q777 26 777 13Q777 2 769 -6T750 -14Q740 -14 728 -4L649 68Q555 -12 424 -12ZM495 201Q483
212 483 224Q483 235 491 243T510 251Q520 251 532 241L647 136Q723 223 723 348V350Q723 481 638 573T424 665T212 574T127 352V350Q127 219 212 127T426 35Q533 35 612 101L495 201Z" />
<glyph unicode="R" glyph-name="R" horiz-adv-x="723" d="M104 22V674Q104 684 112 692T130 700H398Q526 700 595 631Q648 578 648 501V499Q648 414 592 363T443 299L642 41Q650 31 650 23Q650 12 642 4T623 -4Q610 -4 600 10L385 290H156V22Q156 12 148 4T130
-4T112 4T104 22ZM156 337H392Q482 337 539 380T596 497V499Q596 570 543 611T395 652H156V337Z" />
<glyph unicode="S" glyph-name="S" horiz-adv-x="640" d="M341 -10Q194 -10 75 88Q65 96 65 108Q65 118 72 126T91 134Q100 134 108 128Q209 37 344 37Q422 37 471 76T521 176V178Q521 236 480 270T323 327Q197 352 142 398T87 524V526Q87 604 151 657T312 710Q439
710 535 638Q546 629 546 617Q546 606 538 599T520 591T503 597Q417 663 310 663Q234 663 187 625T139 531V529Q139 470 181 435T343 376Q464 351 518 306T573 183V181Q573 97 508 44T341 -10Z" />
<glyph unicode="T" glyph-name="T" horiz-adv-x="648" d="M298 22V652H74Q64 652 57 659T50 676T57 693T74 700H574Q584 700 591 693T598 676T591 659T574 652H350V22Q350 12 342 4T324 -4T306 4T298 22Z" />
<glyph unicode="U" glyph-name="U" horiz-adv-x="760" d="M380 -11Q251 -11 172 68T93 291V678Q93 688 100 696T119 704T137 696T145 678V296Q145 173 208 105T382 36Q491 36 553 101T615 291V678Q615 688 622 696T641 704T659 696T667 678V297Q667 150 589 70T380 -11Z" />
<glyph unicode="V" glyph-name="V" horiz-adv-x="750" d="M374 -7Q353 -7 343 16L58 668Q56 672 56 679Q56 688 63 696T82 704Q100 704 109 683L376 56L644 684Q653 704 670 704Q680 704 687 697T695 680Q695 674 693 670L407 16Q397 -7 376 -7H374Z" />
<glyph unicode="W" glyph-name="W" horiz-adv-x="1102" d="M297 15L63 664Q60 672 60 677Q60 688 68 696T87 704Q107 704 115 680L328 77L527 684Q534 704 552 704H554Q572 704 579 684L778 77L992 683Q1000 704 1017 704Q1027 704 1035 696T1043 678Q1043 674
1039 664L805 15Q796 -8 778 -8H776Q756 -8 749 15L551 603L353 15Q346 -8 326 -8H324Q305 -8 297 15Z" />
<glyph unicode="X" glyph-name="X" horiz-adv-x="722" d="M73 20Q73 28 80 37L330 357L92 660Q83 673 83 680Q83 689 90 696T108 704Q120 704 130 691L362 392L591 688Q603 704 616 704Q626 704 632 697T639 680Q639 672 632 663L393 358L640 40Q649 29 649 20T642
4T624 -4Q612 -4 602 9L360 323L121 12Q109 -4 96 -4Q86 -4 80 3T73 20Z" />
<glyph unicode="Y" glyph-name="Y" horiz-adv-x="716" d="M332 22V277L59 662Q54 670 54 678Q54 688 62 696T81 704Q95 704 105 689L359 324L614 689Q625 704 637 704Q647 704 655 697T663 679Q663 671 655 659L384 278V22Q384 12 376 4T358 -4T340 4T332 22Z" />
<glyph unicode="Z" glyph-name="Z" horiz-adv-x="688" d="M96 0Q86 0 79 7T71 22V23Q71 33 80 45L547 653H105Q95 653 88 659T81 676T88 693T105 700H593Q603 700 610 693T618 678V677Q618 667 609 655L142 47H601Q611 47 618 41T625 24T618 7T601 0H96Z" />
<glyph unicode="[" glyph-name="bracketleft" horiz-adv-x="430" d="M98 -104V674Q98 684 106 692T124 700H356Q364 700 369 694T375 681T370 668T356 662H144V-92H356Q364 -92 369 -98T375 -111T370 -124T356 -130H124Q114 -130 106 -122T98 -104Z" />
<glyph unicode="\" glyph-name="backslash" horiz-adv-x="500" d="M506 -111Q506 -120 500 -126T485 -132Q471 -132 464 -118L12 768Q9 774 9 781Q9 790 15 796T30 802Q44 802 51 788L503 -98Q506 -104 506 -111Z" />
<glyph unicode="]" glyph-name="bracketright" horiz-adv-x="430" d="M332 674V-104Q332 -114 324 -122T306 -130H74Q66 -130 61 -124T55 -111T60 -98T74 -92H286V662H74Q66 662 61 668T55 681T60 694T74 700H306Q316 700 324 692T332 674Z" />
<glyph unicode="^" glyph-name="asciicircum" horiz-adv-x="500" d="M249 660L129 503Q119 489 94 489Q80 489 80 500Q80 506 85 513L218 689Q233 707 246 707H254Q267 707 282 689L415 513Q420 506 420 500Q420 489 405 489Q379 489 369 503L249 660Z" />
<glyph unicode="_" glyph-name="underscore" horiz-adv-x="600" d="M-2 -160Q-11 -160 -17 -154T-24 -138T-18 -123T-2 -116H602Q611 -116 617 -122T624 -138T618 -153T602 -160H-2Z" />
<glyph unicode="`" glyph-name="grave" horiz-adv-x="500" d="M286 592Q268 592 254 605L174 682Q163 693 163 700Q163 708 177 715T205 723Q221 723 233 705L295 612Q299 606 299 601Q299 592 286 592Z" />
<glyph unicode="a" glyph-name="a" horiz-adv-x="574" d="M248 -12Q170 -12 111 30T51 148V150Q51 228 112 272T274 316Q360 316 443 294V316Q443 392 399 432T275 472Q201 472 130 438Q124 435 119 435Q110 435 103 442T96 458Q96 474 110 480Q196 518 278 518Q383
518 439 462Q491 410 491 318V21Q491 10 485 3T467 -4T450 3T443 21V85Q374 -12 248 -12ZM251 34Q331 34 387 78T444 191V249Q354 272 271 272Q191 272 147 240T103 153V151Q103 98 146 66T251 34Z" />
<glyph unicode="b" glyph-name="b" horiz-adv-x="660" d="M93 21V709Q93 720 99 727T117 734T135 727T142 709V396Q225 522 352 522Q450 522 525 449T600 257V255Q600 136 525 62T352 -12Q222 -12 142 110V21Q142 10 135 3T118 -4T101 3T93 21ZM347 35Q433 35
490 94T547 253V255Q547 353 489 414T347 475T202 413T139 256V254Q139 159 201 97T347 35Z" />
<glyph unicode="c" glyph-name="c" horiz-adv-x="571" d="M318 -12Q209 -12 134 66T58 253V255Q58 363 134 442T318 522Q423 522 510 441Q517 434 517 423T510 405T492 398Q481 398 475 404Q399 476 317 476Q230 476 171 413T111 257V255Q111 163 172 99T321 34Q408
34 481 107Q489 115 497 115Q506 115 513 108T521 91T515 76Q429 -12 318 -12Z" />
<glyph unicode="d" glyph-name="d" horiz-adv-x="660" d="M567 709V21Q567 10 561 3T543 -4T525 3T518 21V114Q435 -12 308 -12Q210 -12 135 61T60 253V255Q60 374 135 448T308 522Q438 522 518 400V709Q518 720 524 727T542 734T560 727T567 709ZM313 475Q227
475 170 416T113 257V255Q113 157 171 96T313 35T458 97T521 254V256Q521 351 459 413T313 475Z" />
<glyph unicode="e" glyph-name="e" horiz-adv-x="584" d="M110 279H481Q475 363 428 420T298 477Q223 477 170 421T110 279ZM507 71Q424 -12 308 -12Q205 -12 132 63T58 254V256Q58 368 127 445T300 522Q405 522 469 446T534 258Q534 249 527 242T510 235H110Q117
143 174 89T310 34Q403 34 475 104Q482 111 491 111Q501 111 508 105T515 88Q515 79 507 71Z" />
<glyph unicode="f" glyph-name="f" horiz-adv-x="362" d="M123 21V465H68Q58 465 52 471T45 488Q45 497 52 503T68 510H123V560Q123 648 168 693Q208 733 275 733Q306 733 336 726Q355 723 355 703Q355 692 347 686T327 682Q295 688 275 688Q172 688 172 559V510H331Q341
510 347 504T354 487Q354 478 347 472T331 465H172V21Q172 10 165 3T148 -4T131 3T123 21Z" />
<glyph unicode="g" glyph-name="g" horiz-adv-x="660" d="M317 -162Q194 -162 94 -92Q83 -84 83 -70Q83 -62 90 -55T108 -47Q114 -47 122 -51Q210 -116 318 -116Q409 -116 463 -65T518 82V156Q436 38 305 38Q208 38 134 105T60 278V280Q60 386 134 454T305 522Q438
522 518 408V489Q518 500 525 507T542 514T559 507T567 489V79Q567 -29 502 -94Q434 -162 317 -162ZM310 85Q393 85 457 140T521 279V281Q521 366 458 420T310 475Q227 475 170 422T113 282V280Q113 196 171 141T310 85Z" />
<glyph unicode="h" glyph-name="h" horiz-adv-x="613" d="M93 21V709Q93 720 100 727T117 734Q128 734 135 727T142 709V415Q203 522 326 522Q421 522 475 464T530 312V21Q530 10 524 3T506 -4T488 3T481 21V303Q481 383 438 430T319 477T193 426T142 295V21Q142
10 136 3T118 -4T100 3T93 21Z" />
<glyph unicode="i" glyph-name="i" horiz-adv-x="249" d="M94 668V685Q94 698 102 706T124 715T146 707T155 685V668Q155 655 146 647T124 638T103 646T94 668ZM100 21V489Q100 500 107 507T124 514Q135 514 142 507T149 489V21Q149 10 143 3T125 -4T107 3T100 21Z" />
<glyph unicode="j" glyph-name="j" horiz-adv-x="249" d="M94 668V685Q94 698 102 706T124 715T146 707T155 685V668Q155 655 146 647T124 638T103 646T94 668ZM40 -163Q23 -163 16 -162Q-5 -158 -5 -140Q-5 -131 1 -125T17 -118Q21 -118 28 -118T39 -119Q67 -119
83 -101T100 -48V489Q100 500 107 507T124 514Q135 514 142 507T149 489V-45Q149 -103 120 -133T40 -163Z" />
<glyph unicode="k" glyph-name="k" horiz-adv-x="560" d="M93 21V709Q93 720 100 727T117 734Q128 734 135 727T142 709V183L455 507Q462 514 472 514T488 508T495 491Q495 482 487 474L300 284L500 37Q507 29 507 19Q507 -4 483 -4Q472 -4 462 7L266 249L142
124V21Q142 10 136 3T118 -4T100 3T93 21Z" />
<glyph unicode="l" glyph-name="l" horiz-adv-x="249" d="M100 21V709Q100 720 107 727T124 734T141 727T149 709V21Q149 10 143 3T125 -4T107 3T100 21Z" />
<glyph unicode="m" glyph-name="m" horiz-adv-x="951" d="M93 21V489Q93 500 100 507T117 514Q128 514 135 507T142 489V419Q172 467 211 494T312 522Q432 522 484 412Q548 522 668 522Q758 522 811 464T864 309V21Q864 10 858 3T840 -4T822 3T815 21V303Q815
385 775 431T664 477Q597 477 550 428T503 297V21Q503 10 497 3T479 -4T461 3T454 21V306Q454 385 414 431T305 477T190 424T142 294V21Q142 10 136 3T118 -4T100 3T93 21Z" />
<glyph unicode="n" glyph-name="n" horiz-adv-x="613" d="M93 21V489Q93 500 100 507T117 514Q128 514 135 507T142 489V415Q203 522 326 522Q421 522 475 464T530 312V21Q530 10 524 3T506 -4T488 3T481 21V303Q481 383 438 430T319 477T193 426T142 295V21Q142
10 136 3T118 -4T100 3T93 21Z" />
<glyph unicode="o" glyph-name="o" horiz-adv-x="640" d="M431 -12T319 -12T133 66T58 253V255Q58 364 133 443T321 522T507 444T582 257V255Q582 146 507 67ZM321 34Q411 34 470 98T529 253V255Q529 347 468 411T319 476Q229 476 170 412T111 257V255Q111 163
172 99T321 34Z" />
<glyph unicode="p" glyph-name="p" horiz-adv-x="660" d="M93 -139V489Q93 500 99 507T117 514T135 507T142 489V396Q225 522 352 522Q450 522 525 449T600 257V255Q600 136 525 62T352 -12Q222 -12 142 110V-139Q142 -150 136 -157T118 -164T100 -157T93 -139ZM347
35Q433 35 490 94T547 253V255Q547 353 489 414T347 475T202 413T139 256V254Q139 159 201 97T347 35Z" />
<glyph unicode="q" glyph-name="q" horiz-adv-x="660" d="M567 489V-139Q567 -150 561 -157T543 -164T525 -157T518 -139V114Q435 -12 308 -12Q210 -12 135 61T60 253V255Q60 374 135 448T308 522Q438 522 518 400V489Q518 500 525 507T542 514T559 507T567 489ZM313
475Q227 475 170 416T113 257V255Q113 157 171 96T313 35T458 97T521 254V256Q521 351 459 413T313 475Z" />
<glyph unicode="r" glyph-name="r" horiz-adv-x="400" d="M93 21V489Q93 500 100 507T117 514Q128 514 135 507T142 489V365Q174 436 232 477T347 518Q358 518 365 510T373 491Q373 466 347 464Q259 456 201 391T142 209V21Q142 10 135 3T118 -4Q107 -4 100 3T93 21Z" />
<glyph unicode="s" glyph-name="s" horiz-adv-x="497" d="M258 -10Q207 -10 154 8T60 56Q51 63 51 75Q51 85 58 92T75 99Q84 99 91 94Q172 36 261 36Q314 36 349 63T384 133V135Q384 152 377 166T358 191T327 210T291 224T249 237Q214 247 198 252T153 270T111
295T86 329T74 377V379Q74 441 121 480T242 520Q326 520 407 474Q420 465 420 452Q420 442 413 435T396 428Q388 428 382 432Q311 474 240 474Q188 474 156 449T124 385V383Q124 367 132 353T152 330T185 312T222 297T266 284Q304 273 328 264T379 239T420 198T434
141V139Q434 72 384 31T258 -10Z" />
<glyph unicode="t" glyph-name="t" horiz-adv-x="400" d="M263 -9Q200 -9 160 26T120 131V465H65Q56 465 49 472T42 488T49 503T65 510H120V652Q120 663 127 670T144 677T161 670T169 652V510H329Q338 510 345 503T352 487T345 472T329 465H169V136Q169 37 271
37Q292 37 310 42L329 47Q337 47 344 41T351 25Q351 10 335 4Q298 -9 263 -9Z" />
<glyph unicode="u" glyph-name="u" horiz-adv-x="613" d="M520 489V21Q520 10 513 3T496 -4Q485 -4 478 3T471 21V95Q410 -12 287 -12Q192 -12 138 46T83 198V489Q83 500 89 507T107 514T125 507T132 489V207Q132 127 175 80T294 33T420 84T471 215V489Q471 500
477 507T495 514T513 507T520 489Z" />
<glyph unicode="v" glyph-name="v" horiz-adv-x="582" d="M320 14Q310 -7 292 -7H290Q272 -7 262 14L57 474Q53 484 53 489Q53 500 60 507T79 514Q96 514 105 494L291 55L480 496Q487 514 504 514Q514 514 521 507T529 489Q529 484 526 476L320 14Z" />
<glyph unicode="w" glyph-name="w" horiz-adv-x="861" d="M256 -7Q237 -7 229 15L62 474Q58 484 58 490Q58 500 65 507T84 514Q103 514 110 493L258 62L406 495Q413 514 430 514H432Q450 514 457 495L605 62L754 495Q760 514 778 514Q788 514 795 507T803 491Q803
484 799 474L632 15Q624 -7 605 -7H603Q584 -7 576 16L431 433L285 16Q277 -7 258 -7H256Z" />
<glyph unicode="x" glyph-name="x" horiz-adv-x="570" d="M67 10T67 19T73 35L254 260L82 474Q75 483 75 491Q75 501 82 507T99 514Q111 514 119 504L286 294L452 502Q462 514 473 514Q482 514 488 507T495 491T489 475L316 261L496 36Q503 27 503 19Q503 9 496
3T479 -4Q467 -4 459 6L284 227L110 8Q100 -4 89 -4Q80 -4 74 3Z" />
<glyph unicode="y" glyph-name="y" horiz-adv-x="588" d="M155 -163Q111 -163 68 -147Q54 -142 54 -126Q54 -116 60 -110T77 -103Q81 -103 93 -107Q120 -117 158 -117Q199 -117 227 -90T281 -4L284 3L56 474Q52 484 52 489Q52 500 59 507T78 514Q95 514 104 494L308
54L486 496Q493 514 510 514Q520 514 527 507T535 489Q535 484 532 476L325 -18Q292 -96 252 -129T155 -163Z" />
<glyph unicode="z" glyph-name="z" horiz-adv-x="554" d="M84 0Q75 0 68 6T61 20V21Q61 32 70 42L426 466H90Q81 466 75 472T68 488T74 503T90 510H473Q482 510 489 504T496 490V489Q496 478 487 468L131 44H481Q490 44 496 38T503 22T497 7T481 0H84Z" />
<glyph unicode="{" glyph-name="braceleft" horiz-adv-x="480" d="M406 -139Q287 -115 246 -69T205 62V141Q205 205 179 236T79 268Q55 268 55 287T79 306Q152 306 178 337T205 433V512Q205 596 246 642T406 713Q415 715 421 711T427 697Q427 685 415 681Q311
654 283 620T254 506V431Q254 368 228 335T150 287Q204 269 229 238T254 143V68Q254 -11 282 -45T415 -107Q427 -111 427 -123Q427 -132 421 -136T406 -139Z" />
<glyph unicode="|" glyph-name="bar" horiz-adv-x="286" d="M121 -110V780Q121 789 127 795T143 802T158 796T165 780V-110Q165 -119 159 -125T143 -132T128 -126T121 -110Z" />
<glyph unicode="}" glyph-name="braceright" horiz-adv-x="480" d="M74 713Q193 689 234 643T275 512V433Q275 369 301 338T401 306Q425 306 425 287T401 268Q328 268 302 237T275 141V62Q275 -22 234 -68T74 -139Q65 -141 59 -137T53 -123Q53 -111 65 -107Q169
-80 197 -46T226 68V143Q226 206 252 239T330 287Q276 305 251 336T226 431V506Q226 585 198 619T65 681Q53 685 53 697Q53 706 59 710T74 713Z" />
<glyph unicode="~" glyph-name="asciitilde" horiz-adv-x="460" d="M121 254Q114 240 103 240Q85 240 85 257Q85 263 87 269Q101 311 119 327T166 344Q186 344 232 324T294 303T320 311T339 341Q346 355 357 355Q375 355 375 338Q375 332 373 326Q359 284 341
268T294 251Q274 251 229 271T166 292Q150 292 140 284T121 254Z" />
</font>
</defs>
</svg>
